<?xml version="1.0" encoding="utf-8"?>
<!-- Generator: Adobe Illustrator 19.1.0, SVG Export Plug-In . SVG Version: 6.00 Build 0)  -->
<svg version="1.1" id="Layer_1" xmlns="http://www.w3.org/2000/svg" xmlns:xlink="http://www.w3.org/1999/xlink" x="0px" y="0px"
	 viewBox="0 0 100 100" style="enable-background:new 0 0 100 100;" xml:space="preserve">
<style type="text/css">
	.st0{fill:none;stroke:#5CB85C;stroke-miterlimit:10;stroke-dasharray:10;}
	.st1{fill:none;stroke:#5CB85C;stroke-miterlimit:10;stroke-dasharray:12;}
	.st2{fill:#5CB85C;}
	.st3{fill:#FFFFFF;}
</style>
<circle class="st0" cx="50" cy="50" r="48"/>
<circle class="st1" cx="50" cy="50" r="39.1"/>
<circle class="st2" cx="50" cy="50" r="27"/>
<path class="st3" d="M31.1,52.3c-1.1-0.9-1.2-2.5-0.3-3.5l0,0c0.9-1.1,2.5-1.2,3.5-0.3l13,11c1.1,0.9,1.2,2.5,0.3,3.5l0,0
	c-0.9,1.1-2.5,1.2-3.5,0.3L31.1,52.3z" />
<path class="st3" d="M48.9,62.3c-1.5,1.6-3.5,2.2-4.5,1.2l0,0c-1-0.9-0.6-3,0.9-4.6L63.5,39c1.5-1.6,3.5-2.2,4.5-1.2l0,0
	c1,0.9,0.6,3-0.9,4.6L48.9,62.3z" />
</svg>
